<svg xmlns="http://www.w3.org/2000/svg" viewBox="0 0 533.5 544.3" width="24" height="24">
            <path fill="#4285F4" d="M533.5 278.4c0-18.5-1.5-37-4.9-54.8H272v103.9h146.9c-6.4 34.2-25.3 63.2-53.8 82.6v68.5h86.9c50.8-46.8 81.5-115.8 81.5-200.2z" />
            <path fill="#34A853" d="M272 544.3c72.8 0 133.9-24.1 178.5-65.6l-86.9-68.5c-24.1 16.3-55 25.6-91.6 25.6-70.5 0-130.2-47.7-151.5-111.8H30.4v70.2C74.3 475.4 167.5 544.3 272 544.3z"/>
            <path fill="#FBBC05" d="M120.5 323.9c-10.5-31.3-10.5-64.6 0-95.9V157.8H30.4c-38.6 77.1-38.6 168.5 0 245.6l90.1-70.2z" />
            <path fill="#EA4335" d="M272 107.6c39.6-.6 77.7 13.9 106.7 39.8l80.1-80.1C407.1 23.2 341.1-1.7 272 0 167.5 0 74.3 68.9 30.4 157.8l90.1 70.2C141.8 155.3 201.5 107.6 272 107.6z" />
            </svg>